<?xml version="1.0" encoding="utf-8"?>
<!-- Generator: Adobe Illustrator 22.0.1, SVG Export Plug-In . SVG Version: 6.00 Build 0)  -->
<svg version="1.1" id="Layer_1" xmlns="http://www.w3.org/2000/svg" xmlns:xlink="http://www.w3.org/1999/xlink" x="0px" y="0px"
	 viewBox="0 0 635.2 257.5" style="enable-background:new 0 0 635.2 257.5;" xml:space="preserve">
<style type="text/css">
	.st0{fill:#039BE5;}
	.st1{fill:#080935;}
	.st2{fill:none;}
	.st3{fill:#191731;}
</style>
<path class="st0" d="M187.2,104.1l0.6,1.3l-8.3,3.7l-0.6-1.3L187.2,104.1z M176,129.6c0,26.1-21.1,47.2-47.2,47.2
	s-47.2-21.1-47.2-47.2s21.1-47.2,47.2-47.2S176,103.6,176,129.6 M153.9,71l-3.4,8.2l-1.3-0.5l3.4-8.2L153.9,71z M109,78.7l-1.3,0.6
	l-3.7-8.3l1.3-0.6L109,78.7z M79.2,150.4l-8.3,3.7l-0.6-1.3l8.3-3.7L79.2,150.4z M79.1,107.7l-0.5,1.3l-8.2-3.4l0.5-1.3L79.1,107.7z
	 M104.2,187.3l3.4-8.2l1.3,0.5l-3.4,8.2L104.2,187.3z M149,179.5l1.3-0.6l3.7,8.3l-1.3,0.6L149,179.5z M178.9,150.6l0.5-1.3l8.2,3.4
	l-0.5,1.3L178.9,150.6z M194.1,129.1c0-36-29.1-65.1-65.1-65.1c-36,0-65.1,29.1-65.1,65.1s29.1,65.1,65.1,65.1
	C165,194.2,194.1,165.1,194.1,129.1"/>
<path class="st1" d="M548.8,114.6c8,0,10.9,5.1,11.3,10.5h-23.3C538,119.2,542.5,114.6,548.8,114.6 M571.6,132.7
	c0-0.8,0.1-1.7,0.1-2.7c0-14.6-8.4-25.1-22.8-25.1c-14.2,0-24,10.8-24,24.3c0,13.4,9.9,24.2,24,24.2c9.2,0,16.9-3.8,21.2-9.7
	l-7.7-6.4c-2.6,3.5-7.2,5.8-12.1,5.8c-7.2,0-12.1-4.3-13.4-10.5H571.6z M483.5,149c6.9,3.4,12.2,4.5,20.3,4.5
	c12,0,18.8-5.9,18.8-14.8c0-8.6-6.3-12.4-17.2-14.6c-7.5-1.6-10.4-2.8-10.4-5.4c0-2.5,2.3-4.1,6.9-4.1c4.7,0,10,1.3,14.6,3l4-8.8
	c-5.1-2.1-11-3.8-18.3-3.8c-10.9,0-17.9,5.9-17.9,14.3c0,9.1,7.3,12.4,17.5,14.6c7.3,1.6,9.9,2.8,9.9,5.4c0,2.4-2.2,4.5-7.7,4.5
	c-5.9,0-10.3-1.3-16.1-3.8L483.5,149z M468.4,152.8h12v-46.9h-12V152.8z M444.7,105c-5.5,0-10.7,2.2-14.7,6c-3.2-4.1-8.3-6-15.6-6
	c-4.6,0-8.8,1.4-12.2,3.8v-2.9h-12.1v46.9h12.1v-33.3c2.5-2.3,5.9-3.7,10.1-3.7c6.2,0,9.4,3.6,9.4,10.8v26.2h12v-26
	c0-4.2-0.1-6-0.5-7.3c2.5-2.3,5.4-3.7,9.3-3.7c6.6,0,10.2,3.5,10.2,10.8v26.2h12v-26.2C464.8,111.4,458.5,105,444.7,105
	 M374.2,152.8h12v-46.9h-12V152.8z M370.5,115.8v-9.9h-13.1V82.4l-12.1,17.4v6.1h-3.4v9.9h3.4v22.9c0,9.9,6.3,14.8,14.2,14.8
	c6.7,0,10.4-1.6,10.9-1.7v-9c-1.6,0.2-3.5,0.4-5.5,0.4c-6.1,0-7.4-2.4-7.4-10.8v-16.6H370.5z M315.2,142.7c-4.6,0-8.6-1.5-11.5-4
	v-18.8c2.9-2.5,7-4.1,11.5-4.1c8,0,14.1,5.8,14.1,13.5C329.3,137.2,323.2,142.7,315.2,142.7 M317.3,105c-4.9,0-9.8,1.4-13.7,3.6
	v-2.8h-12v70.4l12-17.1v-9.3c3.9,2.2,8.6,3.5,13.7,3.5c13.1,0,23.8-9.8,23.8-24.2C341.1,114.6,330.4,105,317.3,105"/>
<path class="st1" d="M236.2,121.7c0-11,8.9-20,20-20c11,0,20,8.9,20,20s-8.9,20-20,20C245.1,141.7,236.2,132.7,236.2,121.7
	 M224.3,121.7c0,17.6,14.3,31.8,31.8,31.8s31.8-14.3,31.8-31.8c0-17.6-14.3-31.8-31.8-31.8S224.3,104.1,224.3,121.7"/>
<rect x="63.9" y="64" class="st2" width="513.3" height="130.2"/>
<path class="st3" d="M570,149.4v0.5h1.2v2.8h0.6v-2.8h1.2v-0.5H570z M576.2,149.4l-0.9,2.5l-0.9-2.5h-1v3.3h0.6V150l1,2.7h0.6l1-2.7
	v2.7h0.6v-3.3H576.2z"/>
</svg>
